# xmcd CD database file generated by Grip 3.0.6
# 
# Track frame offsets:
#       187
#       14672
#       35870
#       55785
#       73967
#       88567
#       108920
#       124362
#       143322
#       156587
#       173667
#       189347
#       209475
#       223355
#       241237
#       257650
# 
# Disc length: 3639 seconds
# 
# Revision: 6
# Processed by: cddbd v1.4PL0 Copyright (c) Steve Scherf et al.
# Submitted via: Grip 3.0.6
# 
DISCID=f10e3510
DTITLE=Billie Holiday - Billie's Best
DYEAR=1992
DGENRE=Jazz
TTITLE0=What A Little Moonlight Can Do
TTITLE1=A Foggy Day
TTITLE2=Come Rain Or Come Shine
TTITLE3=Comes Love
TTITLE4=He's Funny That Way
TTITLE5=Stars Fell On Alabama
TTITLE6=Gone With The Wind
TTITLE7=They Can't Take That Away From Me
TTITLE8=East Of The Sun
TTITLE9=Everything I Have Is Yours
TTITLE10=Stormy Blues
TTITLE11=Speak Low
TTITLE12=April In Paris
TTITLE13=I've Got My Love To Keep Me Warm
TTITLE14=Some Other Spring
TTITLE15=All The Way
EXTD=
EXTT0=
EXTT1=
EXTT2=
EXTT3=
EXTT4=
EXTT5=
EXTT6=
EXTT7=
EXTT8=
EXTT9=
EXTT10=
EXTT11=
EXTT12=
EXTT13=
EXTT14=
EXTT15=
PLAYORDER=
